<?xml version="1.0" encoding="utf-8"?>
<!-- Generator: Adobe Illustrator 19.0.0, SVG Export Plug-In . SVG Version: 6.00 Build 0)  -->
<svg version="1.1" xmlns="http://www.w3.org/2000/svg" xmlns:xlink="http://www.w3.org/1999/xlink" x="0px" y="0px"
	 viewBox="0 0 283.5 85" style="enable-background:new 0 0 283.5 85;" xml:space="preserve">
<style type="text/css">
	.st0{display:none;}
	.st1{display:inline;fill:#121921;}
	.st2{fill:#F5F5F5;}
	.st3{fill:#C03B2A;}
	.st4{fill:#852A1C;}
	.st5{fill:url(#SVGID_1_);}
	.st6{opacity:0.65;}
	.st7{opacity:0.73;fill:url(#SVGID_2_);}
	.st8{opacity:0.73;fill:url(#SVGID_3_);}
	.st9{fill:url(#SVGID_4_);}
	.st10{fill:url(#SVGID_5_);}
	.st11{fill:url(#SVGID_6_);}
	.st12{fill:#DCE4F4;}
	.st13{fill:url(#SVGID_7_);}
	.st14{fill:#757F9C;}
	.st15{fill:url(#SVGID_8_);}
	.st16{fill:url(#SVGID_9_);}
	.st17{fill:#F15B50;}
	.st18{fill:#E63325;}
	.st19{fill:url(#SVGID_10_);}
	.st20{fill:url(#SVGID_11_);}
	.st21{fill:url(#SVGID_12_);}
	.st22{fill:url(#SVGID_13_);}
	.st23{display:inline;}
	.st24{opacity:0.15;fill:url(#SVGID_14_);}
	.st25{opacity:0.3;fill:url(#SVGID_15_);}
	.st26{fill:url(#SVGID_16_);}
	.st27{fill:url(#SVGID_17_);}
	.st28{fill:url(#SVGID_18_);}
	.st29{opacity:0.15;fill:url(#SVGID_19_);}
	.st30{opacity:0.3;fill:url(#SVGID_20_);}
	.st31{fill:url(#SVGID_21_);}
	.st32{fill:url(#SVGID_22_);}
	.st33{fill:url(#SVGID_23_);}
</style>
<symbol  id="Deleted_Symbol" viewBox="-16.2 -16.2 32.4 32.4">
</symbol>
<g id="Layer_4" class="st0">
	<rect class="st1" width="283.5" height="85"/>
</g>
<g id="Layer_1">
	<path class="st2" d="M188,55.1h4c0.6,0,1,0.1,1.2,0.2c0.3,0.2,0.5,0.5,0.5,1.2c0,0.7-0.4,0.9-1.1,1.1v0c0.9,0.1,1.2,0.4,1.2,1.2
		c0,0.8-0.2,1.1-0.5,1.3c-0.2,0.2-0.7,0.2-1.2,0.2H188V55.1z M191.8,57.2c0.3,0,0.5,0,0.5-0.1c0.1-0.1,0.2-0.2,0.2-0.7
		c0-0.5-0.1-0.6-0.2-0.6c-0.1,0-0.2-0.1-0.5-0.1h-2.5v1.4H191.8z M192.4,58c-0.1,0-0.2-0.1-0.5-0.1h-2.6v1.6h2.6
		c0.3,0,0.5,0,0.5-0.1c0.1-0.1,0.2-0.2,0.2-0.7C192.6,58.2,192.5,58.1,192.4,58z M202.9,60.3h-5.3v-5.2h5.3v0.7h-4.1v1.4h3.4v0.7
		h-3.4v1.6h4.1V60.3z M209.6,55.8v4.5h-1.2v-4.5h-2.4v-0.7h6.1v0.7H209.6z M219,58.8h-3l-0.7,1.5h-1.2l2.5-5
		c0.1-0.2,0.1-0.2,0.4-0.2h1.1c0.3,0,0.4,0,0.4,0.2l2.5,5h-1.3L219,58.8z M216.4,58.1h2.3l-1.1-2.3h-0.2L216.4,58.1z"/>
	<path class="st3" d="M202.8,40c0.1,0.9,0,2.3-0.2,4.3c-0.5,4.4-1.1,5.6-2.6,6.5c-1,0.6-2.3,0.8-4.4,0.8h-6.4c-0.3,0-0.6,0-0.9,0
		c-0.5,0-1-0.1-1.4-0.1l3-2.4h5.5c1.2,0,1.6-0.1,1.9-0.3c0.4-0.3,0.7-0.8,1.2-4.5c0-0.3,0.1-0.6,0.1-0.9c0.1-0.6,0.1-1,0.1-1.4
		c0-0.6,0.1-1,0-1.3v-0.1c0-0.5-0.1-0.7-0.3-0.8l2.8-2.2c0.1,0.1,0.3,0.2,0.4,0.2c0.1,0.1,0.2,0.2,0.3,0.3c0,0,0,0,0,0
		c0.3,0.2,0.5,0.5,0.6,0.8C202.6,39.2,202.7,39.6,202.8,40z M258.1,51.7h4.2c0,0,1.4-10.7,1.6-11.2l-4.7,2.5
		C259.2,43.3,258.1,51.7,258.1,51.7z M276.1,37.8c-0.8-0.6-2.1-0.8-4.2-0.8H267h-0.9h-21.2c-2.1,0-3.4,0.2-4.4,0.8
		c-1.5,1-2.1,2.1-2.6,6.5c-0.1,1.2-0.3,3.2-0.3,4l4.2-1.6c0-0.7,0.1-1.1,0.2-2.4c0.5-3.8,0.7-4.3,1.2-4.5c0.3-0.2,0.6-0.3,1.9-0.3h5
		l0,0h10.1h5.6l0,0c0.2,0,0.4,0,0.6,0h4.8c1.2,0,1.6,0.1,1.8,0.3c0.4,0.3,0.5,0.8,0,4.5l-0.9,7.3h4.2l0.9-7.3
		C277.6,39.9,277.4,38.8,276.1,37.8z M252.5,42.4c0,0.5-0.1,1.2-0.2,1.9c-0.5,3.8-0.7,4.3-1.2,4.5c-0.3,0.2-0.6,0.3-1.9,0.3h-12.1
		c-1.2,0-1.6-0.1-1.8-0.3c-0.3-0.2-0.4-0.6-0.3-2.7l0.7-4.9c0,0,0-0.4,0-0.7c0-0.1,0-0.1,0-0.2c0-0.1,0-0.2,0-0.3c0-0.1,0-0.1,0-0.2
		c0,0,0-0.1,0-0.2c0-0.1,0-0.2-0.1-0.3c0-0.1,0-0.2-0.1-0.3c-0.1-0.2-0.1-0.3-0.2-0.5c-0.2-0.4-0.5-0.7-0.9-0.9
		c-0.1-0.1-0.2-0.1-0.3-0.2c0,0-0.1-0.1-0.2-0.1c-0.1,0-0.1-0.1-0.2-0.1c-0.3-0.2-0.8-0.3-1.2-0.3c-0.1,0-0.2,0-0.2,0
		c-0.6-0.1-1.3-0.1-2.1-0.1h-2.6h-2.5c-1.9,0-3.5,0.7-4.2,1.4c-0.6-0.7-1.9-1.4-3.8-1.4h-5c-2.1,0-3.4,0.2-4.4,0.8
		c-1.5,1-2.1,2.1-2.6,6.5l-0.9,7.3h4.2h0c0,0,1.3-9.9,1.3-10.1c0,0,0-0.1,0-0.1c0.2-0.9,0.3-1.3,0.5-1.5l0,0
		c0.1-0.1,0.1-0.1,0.2-0.2c0.3-0.2,0.6-0.3,1.9-0.3h4c1.2,0,1.6,0.1,1.8,0.3c0.3,0.2,0.5,0.6,0.2,3l-1.1,8.9h4.2l1.1-8.9
		c0.3-2.4,0.6-2.8,1-3c0.3-0.2,0.6-0.3,1.9-0.3h2.1h1.9c1.2,0,1.6,0.1,1.8,0.3c0,0,0.1,0.1,0.1,0.1c0,0,0,0,0,0c0,0,0,0.1,0.1,0.1
		c0,0,0,0.1,0.1,0.1c0,0.1,0,0.1,0.1,0.2c0,0.2,0,0.5,0,0.9c0,0-0.7,4.7-0.7,4.7c-0.1,1.5-0.1,2.5,0.1,3.2c0.2,0.8,0.6,1.3,1.1,1.7
		c0.5,0.4,1.3,0.6,2.3,0.8c0.5,0.1,1.2,0.1,1.9,0.1h13.2c2.1,0,3.4-0.2,4.4-0.8c1.5-1,2.1-2.1,2.6-6.5c0.2-1.9,0.3-3.2,0.2-4.2
		L252.5,42.4z"/>
	<path class="st4" d="M202.8,40l-4.3,3.4c0.1-0.6,0.1-1,0.1-1.4c0-0.6,0.1-1,0-1.3l3.2-2.6c0.3,0.2,0.5,0.5,0.6,0.8
		C202.6,39.2,202.7,39.6,202.8,40z"/>
	<linearGradient id="SVGID_1_" gradientUnits="userSpaceOnUse" x1="151.3123" y1="55.0772" x2="151.3123" y2="32.0518">
		<stop  offset="0" style="stop-color:#97A4B7"/>
		<stop  offset="0.882" style="stop-color:#FFFFFF"/>
	</linearGradient>
	<path class="st5" d="M207.6,33.6l-26.7,21.5h-1.7l5.5-4.4c-0.3-0.2-0.5-0.4-0.6-0.7c-0.5-0.9-0.6-2.4-0.2-5.6
		c0.5-4.4,1.1-5.6,2.6-6.5c1-0.6,2.3-0.8,4.4-0.8h6.4c1.1,0,1.9,0.1,2.6,0.2l-2.9,2.3c-0.2,0-0.3,0-0.5,0h-5.3
		c-1.2,0-1.6,0.1-1.9,0.3c-0.4,0.3-0.7,0.8-1.2,4.5c-0.1,1.1-0.2,2-0.3,2.6c0,0.6,0,0.9,0,1.2l18.1-14.5H207.6z M173,37.8
		c-0.7-0.5-2.1-0.8-4.2-0.8h-17.1l-6.6,11.5h-0.5l-3.9-11.5h-25.9l0.6-4.9h-4.2l-0.6,4.9h-8.1v0h-0.2c-2.1,0-3.4,0.2-4.4,0.8
		c-1.5,1-2.1,2.1-2.6,6.5c-0.5,4.4-0.3,5.5,1,6.5c0.8,0.6,2.1,0.8,4.2,0.8h6.4c0.7,0,1.4,0,1.9-0.1c1.1-0.1,1.8-0.4,2.5-0.8
		c1.5-1,2.1-2.1,2.6-6.5l0.6-4.7l-4.5,2.1c0,0.7-0.1,1-0.3,2.6c-0.5,3.8-0.7,4.3-1.2,4.5c-0.3,0.2-0.6,0.3-1.9,0.3h-5.3
		c-1.2,0-1.6-0.1-1.8-0.3c-0.4-0.3-0.5-0.8,0-4.5c0.5-3.8,0.7-4.3,1.2-4.5c0.3-0.2,0.6-0.3,1.9-0.3h5.3c0.3,0,0.5,0,0.6,0v0h21.3
		c0.4,0,0.5,0.1,0.7,0.2c0.3,0.2,0.5,0.8,0.2,3.3h-9.9c0.3-2.2,0.5-2.8,0.8-3.1l-4.7,2.2c-0.2,0.8-0.3,1.1-0.5,2.3
		c-0.5,4.4-0.3,5.6,1,6.5c0.8,0.6,2.1,0.8,4.2,0.8h7c1.9,0,2.9-0.3,3.6-0.7c1-0.7,1.5-1.4,1.8-3.2H130c-0.2,0.8-0.3,1-0.5,1.1
		c-0.3,0.2-0.6,0.3-1.5,0.3h-5.6c-1.2,0-1.5-0.1-1.8-0.3c-0.3-0.2-0.5-0.8-0.2-3.7H134c0.4,0,0.5-0.1,0.5-0.3l0.1-0.7
		c0.3-2.3,0.3-3.7,0.1-4.7h6.4l-3.1,2.3l3.6,9.2c0.2,0.6,0.6,0.7,1.4,0.7h2.7c0.8,0,1.2-0.1,1.6-0.7l7.3-11.6h2.5c0,0,0,0,0,0h5.3
		l0,0c0.2,0,0.5,0,0.9,0h5c1.2,0,1.6,0.1,1.8,0.3c0.3,0.2,0.5,0.8,0.2,3.3h-9.9c0.3-2.1,0.5-2.8,0.8-3.1l-4.7,2.2
		c-0.2,0.8-0.3,1.1-0.5,2.3c-0.5,4.4-0.3,5.6,1,6.5c0.8,0.6,2.1,0.8,4.2,0.8h7c1.9,0,2.9-0.3,3.6-0.7c1-0.7,1.5-1.4,1.8-3.2h-4.1
		c-0.2,0.7-0.3,1-0.5,1.1c-0.3,0.2-0.6,0.3-1.5,0.3h-5.6c-1.2,0-1.5-0.1-1.8-0.3c-0.3-0.2-0.5-0.8-0.2-3.7h13.5
		c0.4,0,0.5-0.1,0.5-0.3l0.1-0.7C174.6,39.9,174.3,38.7,173,37.8z M180.3,47.2c0,0,1.9-15.2,1.9-15.2H178c0,0-1.8,14.6-1.8,14.8
		c-0.3,3.1-0.1,4.2,0.6,5.1c0.1,0.2,1.7,1.6,1.7,1.6l2.6-2.1C180.3,50.5,180,49.8,180.3,47.2z"/>
</g>
<g id="Layer_2">
	<g class="st6">
		
			<radialGradient id="SVGID_2_" cx="214.2073" cy="-764.9664" r="30.7149" gradientTransform="matrix(-1.2567 0 0 8.790000e-02 328.3569 143.4554)" gradientUnits="userSpaceOnUse">
			<stop  offset="0" style="stop-color:#000000"/>
			<stop  offset="8.962709e-02" style="stop-color:#000000;stop-opacity:0.9104"/>
			<stop  offset="1" style="stop-color:#000000;stop-opacity:0"/>
		</radialGradient>
		<ellipse class="st7" cx="59.2" cy="76.2" rx="38.6" ry="2.7"/>
		
			<radialGradient id="SVGID_3_" cx="463.3698" cy="330.5385" r="30.7178" gradientTransform="matrix(-0.5395 0 0 0.157 309.1504 24.3208)" gradientUnits="userSpaceOnUse">
			<stop  offset="0" style="stop-color:#000000"/>
			<stop  offset="8.962709e-02" style="stop-color:#000000;stop-opacity:0.9104"/>
			<stop  offset="1" style="stop-color:#000000;stop-opacity:0"/>
		</radialGradient>
		<ellipse class="st8" cx="59.2" cy="76.2" rx="16.6" ry="4.8"/>
	</g>
</g>
<g id="Layer_3">
	<g>
		<radialGradient id="SVGID_4_" cx="40.1612" cy="35.1555" r="17.994" gradientUnits="userSpaceOnUse">
			<stop  offset="0.118" style="stop-color:#FFFFFF"/>
			<stop  offset="1" style="stop-color:#97A4B7"/>
		</radialGradient>
		<path class="st9" d="M49.1,42.8c-1.9,1.9-4.1,3.3-6.4,4.1c-4.4,1.5-13,0.8-12.3-6.5c1.1-2,2.6-3.3,4.5-3.7c1.6-0.4,3.3,0,4.8,1
			l0-0.1C42.8,40,46.1,41.8,49.1,42.8z"/>
		<radialGradient id="SVGID_5_" cx="40.3827" cy="35.2437" r="17.0995" gradientUnits="userSpaceOnUse">
			<stop  offset="0.118" style="stop-color:#FFFFFF"/>
			<stop  offset="1" style="stop-color:#97A4B7"/>
		</radialGradient>
		<path class="st10" d="M49.1,42.8c-0.2,0.2-0.3,0.3-0.5,0.5l-0.8-0.2c-2.7,2.4-6.7,4.7-12.1,3.4c-5-1.2-5-5.4-4.8-6.9
			c0.1-0.1,0.1-0.2,0.2-0.3c1-1.4,2.3-2.3,3.8-2.6c1.6-0.4,3.3,0,4.8,1l0-0.1c2.9,2.2,5.8,3.9,8.6,4.9
			C48.6,42.7,48.9,42.7,49.1,42.8z"/>
		<radialGradient id="SVGID_6_" cx="47.4999" cy="64.5734" r="17.1172" gradientUnits="userSpaceOnUse">
			<stop  offset="0.118" style="stop-color:#FFFFFF"/>
			<stop  offset="1" style="stop-color:#97A4B7"/>
		</radialGradient>
		<path class="st11" d="M50.5,54.2c-2,2-3.9,4.5-5.7,7.1c0,0,0,0,0,0c0,0,0,0,0,0c-1,1.5-2.4,2.5-4,2.9c-1.4,0.3-2.8,0.1-4.1-0.6
			c-4-6.4,2.4-9.8,7.4-10.3C46.1,53.1,48.2,53.4,50.5,54.2z"/>
		<path class="st12" d="M37.3,63.8c-4.1-6.2,2.5-9.4,7.6-9.9c1.7-0.2,3.5,0,5.4,0.5c0.1-0.1,0.2-0.2,0.3-0.3
			c-2.3-0.7-4.5-1.1-6.4-0.9c-4.9,0.5-11.4,3.9-7.4,10.3c0.3,0.2,0.7,0.3,1,0.4C37.6,64,37.4,63.9,37.3,63.8z"/>
		<radialGradient id="SVGID_7_" cx="81.3409" cy="40.7867" r="15.1576" gradientUnits="userSpaceOnUse">
			<stop  offset="0.118" style="stop-color:#FFFFFF"/>
			<stop  offset="1" style="stop-color:#97A4B7"/>
		</radialGradient>
		<path class="st13" d="M77.4,56.4c-1.6,0.3-3.3,0-4.8-1c0,0,0,0,0,0c0,0,0,0,0,0c-0.8-0.5-1.6-1-2.5-1.5c0.9-2.7,1-6.1,0.2-9.7
			c-0.8-3.8-2.6-7.1-4.7-9.3c0.7-1,1.3-2.1,1.9-3.2l0,0.1c1-1.5,2.4-2.6,4-2.9c4.7-1,9.9,4.3,11.5,11.9
			C84.7,48.4,82.2,55.4,77.4,56.4z"/>
		<path class="st14" d="M79.4,55.5c7.2-6.5,0.4-24.2-6.5-24.7c-3.8-0.3-7.1,3.8-7.3,4c0.7-1,1.3-2.1,1.9-3.2l0,0.1
			c1-1.5,2.4-2.6,4-2.9c4.7-1,9.9,4.3,11.5,11.9C84.4,47.2,82.8,53.3,79.4,55.5z"/>
		<radialGradient id="SVGID_8_" cx="65.55" cy="37.9548" r="32.741" gradientUnits="userSpaceOnUse">
			<stop  offset="0" style="stop-color:#F47A5E"/>
			<stop  offset="0.2166" style="stop-color:#F1563D"/>
			<stop  offset="0.4332" style="stop-color:#ED1C24"/>
			<stop  offset="1" style="stop-color:#740000"/>
		</radialGradient>
		<path class="st15" d="M88,45.1c0,16-13,29-29,29c-9,0-17-4.1-22.3-10.4c1.3,0.7,2.7,0.9,4.1,0.6c1.6-0.3,3-1.4,4-2.9c0,0,0,0,0,0
			c0,0,0,0,0,0c1.7-2.6,3.6-5.1,5.7-7.1c3,1,6.2,2.6,9.2,4.6c0,0,0,0,0,0c0,0,0,0,0,0c1.6,1,3.2,1.4,4.8,1c2.1-0.4,3.7-2,4.8-4.2
			c0.2-0.5,0.5-1.1,0.7-1.7c0.8,0.5,1.7,1,2.5,1.5c0,0,0,0,0,0c0,0,0,0,0,0c1.6,1,3.2,1.4,4.8,1c0.8-0.2,1.5-0.5,2.2-1
			c2.6-1.9,4.1-6.1,3.9-10.9c-0.1-1.2-0.2-2.4-0.5-3.7c-1-4.5-3.2-8.3-5.9-10.3c-0.9-0.7-1.9-1.2-2.9-1.5c-0.9-0.3-1.9-0.3-2.8-0.1
			c-1.6,0.3-3,1.4-4,2.9l0-0.1c-0.6,1.1-1.3,2.2-1.9,3.2c-2.1-2.1-4.5-3.1-6.9-2.6c-1.6,0.3-3,1.4-4,2.9l0-0.1
			c-0.9,1.6-1.8,3-2.7,4.4c-0.6,0.8-1.2,1.5-1.8,2.2c-0.4,0.4-0.7,0.8-1.1,1.1c-3-1-6.3-2.8-9.4-5.2l0,0.1c-1.1-0.7-2.2-1.1-3.4-1.1
			c-0.5,0-1,0-1.5,0.1c-1.9,0.4-3.4,1.8-4.5,3.7c0,0,0,0,0,0C32.6,26.6,44.6,16.1,59,16.1C75,16.1,88,29.1,88,45.1z"/>
		<linearGradient id="SVGID_9_" gradientUnits="userSpaceOnUse" x1="86.4119" y1="34.3159" x2="82.4613" y2="35.8679">
			<stop  offset="0" style="stop-color:#FFFFFF"/>
			<stop  offset="1" style="stop-color:#FFFFFF;stop-opacity:0"/>
		</linearGradient>
		<path class="st16" d="M59,73.3c-7.5,0-14.6-2.9-19.8-8.1c0.2,0,0.3,0,0.5,0c0.4,0,0.9,0,1.3-0.1c1.8-0.4,3.3-1.5,4.5-3.2l0.1-0.1
			l0-0.1c1.7-2.6,3.5-4.8,5.2-6.6c2.6,0.9,5.4,2.3,8.6,4.3c0,0,0.1,0.1,0.1,0.1c1.3,0.8,2.7,1.2,4.1,1.2c0.5,0,0.9,0,1.3-0.1
			c2.2-0.5,4.1-2.1,5.3-4.7c0.1-0.3,0.3-0.6,0.4-0.9c0.5,0.3,1.1,0.6,1.6,1l0,0c0,0,0.1,0,0.1,0.1c1.3,0.8,2.7,1.2,4,1.2
			c0.5,0,0.9,0,1.3-0.1c0.9-0.2,1.8-0.6,2.5-1.2c2.8-2.1,4.4-6.5,4.2-11.6c-0.1-1.3-0.2-2.6-0.5-3.8c-1-4.6-3.2-8.5-6.2-10.8
			c-1-0.8-2.1-1.3-3.2-1.6c-0.6-0.2-1.2-0.2-1.8-0.2c-0.5,0-0.9,0-1.3,0.1c-1.3,0.3-2.4,0.9-3.4,1.9l-0.1-0.5l-1,1.8
			c-0.4,0.8-0.9,1.6-1.4,2.3c-1.7-1.5-3.6-2.3-5.5-2.3c-0.5,0-0.9,0-1.3,0.1c-1.3,0.3-2.4,0.9-3.4,1.9L55,32.9l-1,1.8
			c-0.9,1.6-1.8,3-2.7,4.3c-0.6,0.8-1.2,1.5-1.7,2.2c-0.2,0.3-0.5,0.5-0.7,0.8c-2.7-1-5.7-2.7-8.7-4.9l-1.7-1.3l0.1,0.6
			c-0.7-0.3-1.4-0.4-2.2-0.5c-0.1,0-0.2,0-0.4,0c-0.4,0-0.9,0-1.3,0.1c-1,0.2-2,0.7-2.8,1.4c3.4-12,14.3-20.3,27.1-20.3
			c15.5,0,28.2,12.6,28.2,28.2C87.2,60.6,74.5,73.3,59,73.3z"/>
		<path class="st17" d="M65.6,34.9c-1.6,2.4-3.4,4.6-5.3,6.2c-1.5,1.3-3.1,2.2-4.8,2.5c-0.5,0.1-0.9,0.1-1.4,0.2
			c-1.6,0-3.3-0.3-5-0.9c0.4-0.4,0.7-0.7,1.1-1.1c0.6-0.7,1.2-1.4,1.8-2.2c1-1.3,1.9-2.8,2.7-4.4l0,0.1c1-1.5,2.4-2.6,4-2.9
			C61.1,31.7,63.5,32.8,65.6,34.9z"/>
		<path class="st18" d="M70,53.9c-1,3.1-2.9,5.4-5.4,5.9c-1.6,0.3-3.3,0-4.8-1c0,0,0,0,0,0c0,0,0,0,0,0c-3-1.9-6.2-3.6-9.2-4.6
			c2-2,4.1-3.8,6.4-4.3C60.7,49.1,65.5,51.3,70,53.9z"/>
		<radialGradient id="SVGID_10_" cx="76.275" cy="58.272" r="11.199" gradientUnits="userSpaceOnUse">
			<stop  offset="0" style="stop-color:#FFFFFF"/>
			<stop  offset="0.6513" style="stop-color:#E74B3B"/>
			<stop  offset="1" style="stop-color:#C03B2A;stop-opacity:0"/>
		</radialGradient>
		<path class="st19" d="M39.1,66.2c0.6,0.1,1.2,0.1,1.9-0.1c1.6-0.4,3-1.4,4-2.9c0,0,0,0,0,0c0,0,0,0,0,0c1.7-2.6,3.6-5.1,5.7-7.1
			c2-2,4.1-3.8,6.4-4.3c3.8-0.8,8.6,1.4,13.2,4c0.8,0.5,1.7,1,2.5,1.5c0,0,0,0,0,0c0,0,0,0,0,0c1.6,1,3.2,1.4,4.8,1
			c4.4-1,6.9-7.1,5.9-14.1c0.3,6.2-2.1,11.3-6.1,12.2c-1.6,0.3-3.3,0-4.8-1c0,0,0,0,0,0c0,0,0,0,0,0c-0.8-0.5-1.6-1-2.5-1.5
			c-4.6-2.6-9.3-4.8-13.1-4c-2.3,0.5-4.3,2.3-6.4,4.3c-2,2-3.9,4.5-5.7,7.1c0,0,0,0,0,0c0,0,0,0,0,0c-1,1.5-2.4,2.5-4,2.9
			c-1.4,0.3-2.8,0.1-4.1-0.6C37.5,64.5,38.3,65.4,39.1,66.2z"/>
		<g>
			<linearGradient id="SVGID_11_" gradientUnits="userSpaceOnUse" x1="56.7886" y1="15.7941" x2="56.7886" y2="45.8701">
				<stop  offset="0" style="stop-color:#FFFFFF"/>
				<stop  offset="1" style="stop-color:#FFFFFF;stop-opacity:0"/>
			</linearGradient>
			<path class="st20" d="M77.2,30.4c-0.9-0.7-1.9-1.2-2.9-1.5c-0.9-0.3-1.9-0.3-2.8-0.1c-1.6,0.3-3,1.4-4,2.9l0-0.1
				c-0.6,1.1-1.3,2.2-1.9,3.2c-1.6,2.4-3.4,4.6-5.3,6.2c-1.5,1.3-3.1,2.2-4.8,2.5c-0.5,0.1-0.9,0.1-1.4,0.2c-1.6,0-3.3-0.3-5-0.9
				c-3-1-6.3-2.8-9.4-5.2l0,0.1c-1.1-0.7-2.2-1.1-3.4-1.1c0.6-7,6.9-13.8,16-16.5c10.6-3.2,21.1,0.4,24.1,8c0.1,0.3,0.3,0.7,0.4,1
				C77,29.6,77.1,30,77.2,30.4z"/>
			<linearGradient id="SVGID_12_" gradientUnits="userSpaceOnUse" x1="63.7753" y1="19.7067" x2="63.7753" y2="46.4034">
				<stop  offset="0" style="stop-color:#FFFFFF"/>
				<stop  offset="1" style="stop-color:#FFFFFF;stop-opacity:0"/>
			</linearGradient>
			<path class="st21" d="M83.5,44.5c-0.1-1.2-0.2-2.4-0.5-3.7c-1-4.5-3.2-8.3-5.9-10.3c-0.9-0.7-1.9-1.2-2.9-1.5
				c-0.9-0.3-1.9-0.3-2.8-0.1c-1.6,0.3-3,1.4-4,2.9l0-0.1c-0.6,1.1-1.3,2.2-1.9,3.2c-1.6,2.4-3.4,4.6-5.3,6.2
				c-1.5,1.3-3.1,2.2-4.8,2.5c-0.5,0.1-0.9,0.1-1.4,0.2c-1.4-0.7-2.7-1.4-3.9-2c-2.1-1.1-3.8-2.1-4.9-3.3v0
				c-1.7-1.9-1.9-4.1,0.6-7.7c4.4-6.2,11.9-9,19.2-8c0,0,0,0,0,0c3.3,0.5,6.5,1.7,9.4,3.8c0.7,0.5,1.4,1,2,1.6
				C81.3,32.4,83.8,38.5,83.5,44.5z"/>
			<linearGradient id="SVGID_13_" gradientUnits="userSpaceOnUse" x1="58.0144" y1="19.059" x2="58.0144" y2="42.7432">
				<stop  offset="0" style="stop-color:#FFFFFF"/>
				<stop  offset="1" style="stop-color:#FFFFFF;stop-opacity:0"/>
			</linearGradient>
			<path class="st22" d="M74.3,28.9c-0.9-0.3-1.9-0.3-2.8-0.1c-1.6,0.3-3,1.4-4,2.9l0-0.1c-0.6,1.1-1.3,2.2-1.9,3.2
				c-1.6,2.4-3.4,4.6-5.3,6.2c-0.5-0.2-1-0.3-1.6-0.4c-2.3-0.6-4.6-0.9-6.7-1.2c-2.6-0.3-4.9-0.6-6.7-1.1v0
				c-2.8-0.8-4.2-2.3-3.3-6.1c2-8,11.5-12.6,21.3-10.1c0.6,0.1,1.2,0.3,1.8,0.5c0,0,0,0,0,0C68.9,24,72.1,26.2,74.3,28.9z"/>
		</g>
		<path class="st12" d="M35.7,46.5c5.4,1.3,9.4-1,12.1-3.4l0.6-0.5l0.7,0.3l-0.5,0.5c-1.8,1.7-3.8,2.9-5.9,3.6
			c-4.4,1.5-13,0.8-12.3-6.5c0.2-0.3,0.3-0.5,0.5-0.8C30.7,41.1,30.7,45.3,35.7,46.5z"/>
		<path class="st12" d="M70.6,54.2c-0.2-0.1-0.4-0.2-0.6-0.3c0.9-2.7,1-6.1,0.2-9.7c-0.8-3.8-2.6-7.1-4.7-9.3
			c0.1-0.2,0.2-0.3,0.3-0.5C67.8,36.3,73.3,43,70.6,54.2z"/>
	</g>
</g>
<g id="Layer_5" class="st0">
	
		<use xlink:href="#Deleted_Symbol"  width="32.4" height="32.4" x="-16.2" y="-16.2" transform="matrix(2.170000e-02 -0.5871 -0.5871 -2.170000e-02 53.8008 22.2725)" style="display:inline;overflow:visible;"/>
	<g class="st23">
		
			<radialGradient id="SVGID_14_" cx="-8096.042" cy="-8161.875" r="4.9438" gradientTransform="matrix(2.0339 -0.382 0.382 2.0339 19638.2715 13530.5225)" gradientUnits="userSpaceOnUse">
			<stop  offset="0" style="stop-color:#000000"/>
			<stop  offset="0.73" style="stop-color:#93432A"/>
			<stop  offset="1" style="stop-color:#000000"/>
		</radialGradient>
		<circle class="st24" cx="53.9" cy="22.8" r="10.2"/>
		
			<radialGradient id="SVGID_15_" cx="-8096.042" cy="-8161.8745" r="2.4719" gradientTransform="matrix(2.0339 -0.382 0.382 2.0339 19638.2715 13530.5225)" gradientUnits="userSpaceOnUse">
			<stop  offset="0.15" style="stop-color:#FFFFFF"/>
			<stop  offset="0.2134" style="stop-color:#D7C0BE"/>
			<stop  offset="0.2931" style="stop-color:#B68A8A"/>
			<stop  offset="0.362" style="stop-color:#A16A6B"/>
			<stop  offset="0.4166" style="stop-color:#95585B"/>
			<stop  offset="0.45" style="stop-color:#915155"/>
			<stop  offset="0.5442" style="stop-color:#78312F"/>
			<stop  offset="0.6472" style="stop-color:#5C0E05"/>
			<stop  offset="0.7362" style="stop-color:#410000"/>
			<stop  offset="0.8068" style="stop-color:#200000"/>
			<stop  offset="0.85" style="stop-color:#000000"/>
			<stop  offset="0.856" style="stop-color:#120000"/>
			<stop  offset="0.8623" style="stop-color:#300000"/>
			<stop  offset="0.8686" style="stop-color:#470000"/>
			<stop  offset="0.875" style="stop-color:#5C0000"/>
			<stop  offset="0.8815" style="stop-color:#751400"/>
			<stop  offset="0.888" style="stop-color:#912A15"/>
			<stop  offset="0.8945" style="stop-color:#B44126"/>
			<stop  offset="0.9" style="stop-color:#D65836"/>
			<stop  offset="0.9063" style="stop-color:#BD472B"/>
			<stop  offset="0.916" style="stop-color:#9D311B"/>
			<stop  offset="0.9262" style="stop-color:#801D09"/>
			<stop  offset="0.9367" style="stop-color:#690900"/>
			<stop  offset="0.9475" style="stop-color:#530000"/>
			<stop  offset="0.9588" style="stop-color:#410000"/>
			<stop  offset="0.9707" style="stop-color:#290000"/>
			<stop  offset="0.9838" style="stop-color:#0F0000"/>
			<stop  offset="1" style="stop-color:#000000"/>
		</radialGradient>
		<circle class="st25" cx="53.9" cy="22.8" r="5.1"/>
		
			<radialGradient id="SVGID_16_" cx="-8096.042" cy="-8161.8745" r="1.6932" gradientTransform="matrix(2.0339 -0.382 0.382 2.0339 19638.2715 13530.5225)" gradientUnits="userSpaceOnUse">
			<stop  offset="0.15" style="stop-color:#FFFFFF"/>
			<stop  offset="0.1563" style="stop-color:#E8E6E5"/>
			<stop  offset="0.1905" style="stop-color:#A49D9B"/>
			<stop  offset="0.2291" style="stop-color:#706765"/>
			<stop  offset="0.2706" style="stop-color:#4B4341"/>
			<stop  offset="0.3158" style="stop-color:#302927"/>
			<stop  offset="0.3657" style="stop-color:#191310"/>
			<stop  offset="0.422" style="stop-color:#000000"/>
			<stop  offset="0.4878" style="stop-color:#000000"/>
			<stop  offset="0.5691" style="stop-color:#000000"/>
			<stop  offset="0.6833" style="stop-color:#000000"/>
			<stop  offset="1" style="stop-color:#000000"/>
		</radialGradient>
		<circle class="st26" cx="53.9" cy="22.8" r="3.5"/>
	</g>
	<g class="st23">
		
			<radialGradient id="SVGID_17_" cx="-8095.665" cy="-8162.1211" r="19.7139" gradientTransform="matrix(2.0339 -0.382 0.382 2.0339 19638.2715 13530.5225)" gradientUnits="userSpaceOnUse">
			<stop  offset="0" style="stop-color:#FFFFFF"/>
			<stop  offset="0" style="stop-color:#FFFFFF"/>
			<stop  offset="1" style="stop-color:#FFFFFF;stop-opacity:0"/>
		</radialGradient>
		<polygon class="st27" points="50.3,3.7 54.3,21.6 108.1,12.1 54.5,22.7 57.3,40.9 53.3,22.9 1,32.2 53.1,21.8 		"/>
		
			<radialGradient id="SVGID_18_" cx="-8096.042" cy="-8162.1206" r="3.8116" gradientTransform="matrix(2.0339 -0.382 0.382 2.0339 19638.2715 13530.5225)" gradientUnits="userSpaceOnUse">
			<stop  offset="0" style="stop-color:#FFFFFF"/>
			<stop  offset="0" style="stop-color:#FFFFFF"/>
			<stop  offset="1" style="stop-color:#FFFFFF;stop-opacity:0"/>
		</radialGradient>
		<circle class="st28" cx="53.8" cy="22.3" r="7.9"/>
	</g>
	
		<use xlink:href="#Deleted_Symbol"  width="32.4" height="32.4" x="-16.2" y="-16.2" transform="matrix(1.810000e-02 -0.4902 -0.4902 -1.810000e-02 53.9277 22.25)" style="display:inline;overflow:visible;"/>
	<g class="st23">
		
			<radialGradient id="SVGID_19_" cx="-8105.2642" cy="-8153.71" r="4.9437" gradientTransform="matrix(1.6983 -0.319 0.319 1.6983 16420.209 11284.5332)" gradientUnits="userSpaceOnUse">
			<stop  offset="0" style="stop-color:#000000"/>
			<stop  offset="0.73" style="stop-color:#93432A"/>
			<stop  offset="1" style="stop-color:#000000"/>
		</radialGradient>
		<circle class="st29" cx="54" cy="22.7" r="8.5"/>
		
			<radialGradient id="SVGID_20_" cx="-8105.2637" cy="-8153.71" r="2.4718" gradientTransform="matrix(1.6983 -0.319 0.319 1.6983 16420.209 11284.5332)" gradientUnits="userSpaceOnUse">
			<stop  offset="0.15" style="stop-color:#FFFFFF"/>
			<stop  offset="0.2134" style="stop-color:#D7C0BE"/>
			<stop  offset="0.2931" style="stop-color:#B68A8A"/>
			<stop  offset="0.362" style="stop-color:#A16A6B"/>
			<stop  offset="0.4166" style="stop-color:#95585B"/>
			<stop  offset="0.45" style="stop-color:#915155"/>
			<stop  offset="0.5442" style="stop-color:#78312F"/>
			<stop  offset="0.6472" style="stop-color:#5C0E05"/>
			<stop  offset="0.7362" style="stop-color:#410000"/>
			<stop  offset="0.8068" style="stop-color:#200000"/>
			<stop  offset="0.85" style="stop-color:#000000"/>
			<stop  offset="0.856" style="stop-color:#120000"/>
			<stop  offset="0.8623" style="stop-color:#300000"/>
			<stop  offset="0.8686" style="stop-color:#470000"/>
			<stop  offset="0.875" style="stop-color:#5C0000"/>
			<stop  offset="0.8815" style="stop-color:#751400"/>
			<stop  offset="0.888" style="stop-color:#912A15"/>
			<stop  offset="0.8945" style="stop-color:#B44126"/>
			<stop  offset="0.9" style="stop-color:#D65836"/>
			<stop  offset="0.9063" style="stop-color:#BD472B"/>
			<stop  offset="0.916" style="stop-color:#9D311B"/>
			<stop  offset="0.9262" style="stop-color:#801D09"/>
			<stop  offset="0.9367" style="stop-color:#690900"/>
			<stop  offset="0.9475" style="stop-color:#530000"/>
			<stop  offset="0.9588" style="stop-color:#410000"/>
			<stop  offset="0.9707" style="stop-color:#290000"/>
			<stop  offset="0.9838" style="stop-color:#0F0000"/>
			<stop  offset="1" style="stop-color:#000000"/>
		</radialGradient>
		<circle class="st30" cx="54" cy="22.7" r="4.3"/>
		
			<radialGradient id="SVGID_21_" cx="-8105.2637" cy="-8153.7095" r="1.693" gradientTransform="matrix(1.6983 -0.319 0.319 1.6983 16420.209 11284.5332)" gradientUnits="userSpaceOnUse">
			<stop  offset="0.15" style="stop-color:#FFFFFF"/>
			<stop  offset="0.1563" style="stop-color:#E8E6E5"/>
			<stop  offset="0.1905" style="stop-color:#A49D9B"/>
			<stop  offset="0.2291" style="stop-color:#706765"/>
			<stop  offset="0.2706" style="stop-color:#4B4341"/>
			<stop  offset="0.3158" style="stop-color:#302927"/>
			<stop  offset="0.3657" style="stop-color:#191310"/>
			<stop  offset="0.422" style="stop-color:#000000"/>
			<stop  offset="0.4878" style="stop-color:#000000"/>
			<stop  offset="0.5691" style="stop-color:#000000"/>
			<stop  offset="0.6833" style="stop-color:#000000"/>
			<stop  offset="1" style="stop-color:#000000"/>
		</radialGradient>
		<circle class="st31" cx="54" cy="22.7" r="2.9"/>
	</g>
	<g class="st23">
		
			<radialGradient id="SVGID_22_" cx="-8104.8867" cy="-8153.9561" r="19.7138" gradientTransform="matrix(1.6983 -0.319 0.319 1.6983 16420.209 11284.5332)" gradientUnits="userSpaceOnUse">
			<stop  offset="0" style="stop-color:#FFFFFF"/>
			<stop  offset="0" style="stop-color:#FFFFFF"/>
			<stop  offset="1" style="stop-color:#FFFFFF;stop-opacity:0"/>
		</radialGradient>
		<polygon class="st32" points="51,6.7 54.3,21.7 99.3,13.7 54.5,22.6 56.8,37.8 53.5,22.8 9.8,30.5 53.4,21.9 		"/>
		
			<radialGradient id="SVGID_23_" cx="-8105.2642" cy="-8153.9556" r="3.8115" gradientTransform="matrix(1.6983 -0.319 0.319 1.6983 16420.209 11284.5332)" gradientUnits="userSpaceOnUse">
			<stop  offset="0" style="stop-color:#FFFFFF"/>
			<stop  offset="0" style="stop-color:#FFFFFF"/>
			<stop  offset="1" style="stop-color:#FFFFFF;stop-opacity:0"/>
		</radialGradient>
		<circle class="st33" cx="53.9" cy="22.2" r="6.6"/>
	</g>
</g>
</svg>
